<mxfile host="app.diagrams.net" agent="Mozilla/5.0 (X11; Linux x86_64) AppleWebKit/537.36 (KHTML, like Gecko) Chrome/133.0.0.0 Safari/537.36" version="26.1.0">
  <diagram name="Page-1" id="jevsIs7GYPaXCSnmz56U">
    <mxGraphModel dx="1035" dy="415" grid="1" gridSize="10" guides="1" tooltips="1" connect="1" arrows="1" fold="1" page="1" pageScale="1" pageWidth="850" pageHeight="1100" math="0" shadow="0">
      <root>
        <mxCell id="0" />
        <mxCell id="1" parent="0" />
        <mxCell id="Czn8faHF8JpwJfhmqrkb-7" value="c|d, f|s, h|i p|g, t|z, x|v" style="edgeStyle=orthogonalEdgeStyle;rounded=0;orthogonalLoop=1;jettySize=auto;html=1;exitX=1;exitY=0;exitDx=0;exitDy=0;entryX=0;entryY=0;entryDx=0;entryDy=0;curved=1;strokeWidth=2;verticalAlign=bottom;" edge="1" parent="1" source="Czn8faHF8JpwJfhmqrkb-1" target="Czn8faHF8JpwJfhmqrkb-2">
          <mxGeometry x="-0.0308" relative="1" as="geometry">
            <Array as="points">
              <mxPoint x="308" y="120" />
              <mxPoint x="563" y="120" />
            </Array>
            <mxPoint x="-1" as="offset" />
          </mxGeometry>
        </mxCell>
        <mxCell id="Czn8faHF8JpwJfhmqrkb-1" value="0" style="ellipse;whiteSpace=wrap;html=1;aspect=fixed;strokeWidth=3;" vertex="1" parent="1">
          <mxGeometry x="240" y="160" width="79" height="79" as="geometry" />
        </mxCell>
        <mxCell id="Czn8faHF8JpwJfhmqrkb-2" value="1" style="ellipse;whiteSpace=wrap;html=1;aspect=fixed;strokeWidth=3;" vertex="1" parent="1">
          <mxGeometry x="551" y="159" width="80" height="80" as="geometry" />
        </mxCell>
        <mxCell id="Czn8faHF8JpwJfhmqrkb-3" value="2" style="ellipse;whiteSpace=wrap;html=1;aspect=fixed;strokeWidth=3;" vertex="1" parent="1">
          <mxGeometry x="669" y="371" width="80" height="80" as="geometry" />
        </mxCell>
        <mxCell id="Czn8faHF8JpwJfhmqrkb-4" value="4" style="ellipse;whiteSpace=wrap;html=1;aspect=fixed;strokeWidth=3;" vertex="1" parent="1">
          <mxGeometry x="113" y="371" width="80" height="80" as="geometry" />
        </mxCell>
        <mxCell id="Czn8faHF8JpwJfhmqrkb-5" value="3" style="ellipse;whiteSpace=wrap;html=1;aspect=fixed;strokeWidth=3;" vertex="1" parent="1">
          <mxGeometry x="390" y="540" width="80" height="80" as="geometry" />
        </mxCell>
        <mxCell id="Czn8faHF8JpwJfhmqrkb-14" style="edgeStyle=orthogonalEdgeStyle;rounded=0;orthogonalLoop=1;jettySize=auto;html=1;exitX=0.5;exitY=0;exitDx=0;exitDy=0;entryX=0;entryY=0.5;entryDx=0;entryDy=0;curved=1;" edge="1" parent="1" source="Czn8faHF8JpwJfhmqrkb-1" target="Czn8faHF8JpwJfhmqrkb-1">
          <mxGeometry relative="1" as="geometry">
            <Array as="points">
              <mxPoint x="279" y="120" />
              <mxPoint x="200" y="120" />
              <mxPoint x="200" y="199" />
            </Array>
          </mxGeometry>
        </mxCell>
      </root>
    </mxGraphModel>
  </diagram>
</mxfile>
